<svg version="1.0" xmlns="http://www.w3.org/2000/svg" width="341.333" height="341.333" viewBox="0 0 256 256"><path d="M111.5 8.2c-3 1.7-4.1 3.6-7 11.1-2.9 8-3.2 15.1-.7 18.8 5.5 8.2 6.2 9.7 6.2 13 0 2-.7 4.2-1.5 4.9-1.9 1.6-1.9 5.9 0 8.7 3.6 5.2 10.9 3.2 14.4-4 3.7-7.6 2.2-17.9-3.6-25.6-3.2-4.2-3.2-6.4.2-12.2 3.4-6 3.3-11.1-.1-13.8-3-2.4-5-2.6-7.9-.9zM73.8 23.1c-1.9.7-3.6 3-6.2 8.2-6.1 12.2-6 16.9.4 26.4 4.2 6.1 4.9 9.6 2.5 12.7-2.4 3.2-1.9 8.1 1.1 10.5C73.1 82.1 75 83 76 83c4.6 0 10.9-9 11-15.6 0-4.8-2.7-12.7-6-17.2-1.6-2.3-3-4.9-3-5.7 0-.9 1.4-4.5 3-8 3.9-8.3 3.2-12.3-2.5-13.8-1.1-.3-3.2-.1-4.7.4zM148.7 23.1c-.9.6-3.4 4.3-5.4 8.2-2.8 5.6-3.7 8.4-3.7 12.7-.1 5.7.4 6.9 6.2 15.5 3.5 5.3 4 8 1.8 10.4-.8.9-1.8 2.8-2.1 4.3-.6 2.2-.1 3.3 2.3 5.8 3.6 3.5 6 3.8 9.6.9 7.9-6.2 8.1-18.4.6-30.2-3.6-5.8-3.7-7.4-.5-13.7 3.1-6.2 3.2-9.4 0-12.5-2.5-2.6-5.8-3.1-8.8-1.4zM43.3 91c-4.4 1.8-4.4 2.8-4 50.3.4 50 .4 50 7.2 64.3 4 8.3 12.7 19.8 18.2 24l3.8 2.9-21.3.5c-21 .5-21.4.5-23.3 2.9-2.3 2.8-2.4 6.9-.3 9.9l1.5 2.2h205.8l1.5-2.2c3-4.2 1.9-9.1-2.5-11.3-2.3-1.2-8.8-1.5-36.1-1.5h-33.2l6.5-6.8c6.8-6.9 11.1-12.7 14.7-19.7 1.8-3.6 2.6-4.1 7.3-5.2 15.7-3.7 32.1-16.7 39.2-31.3 11.6-23.4 7.1-45.3-10.9-54.1-4.1-2-6.8-2.4-16.1-2.7l-11.3-.4v-8.5c0-8-.2-8.6-2.9-11.4l-2.9-2.9-69.4.1c-38.1 0-70.3.4-71.5.9zm168.3 39.6c5.8 4.3 6.9 6.9 6.9 15.8-.1 7.3-.4 9-3.8 15.9-4.4 9.4-11.6 16.9-20.1 21-3.2 1.6-5.9 2.7-5.9 2.5-.1-.2-.1-13.3.1-29.1l.3-28.9 9.9.4c8.1.2 10.4.7 12.6 2.4zM79.4 158.1c3.4 1.6 3.8 2.8 4.6 14.4.8 11.5 2.1 14.9 8.8 21.8 5.1 5.2 12.7 8.7 19.1 8.7 7.9 0 12.2 7.9 7 13.1-3.3 3.3-14.3 2.3-23.5-2-17.8-8.3-26.4-22.3-26.4-43 0-10.1.6-11.8 5-13.4 2.3-.8 2.7-.8 5.4.4z"/></svg>