<svg version="1.0" xmlns="http://www.w3.org/2000/svg" width="341.333" height="341.333" viewBox="0 0 256 256"><path d="M75.1 25.7C72.9 27.6 64 52.4 64 56.8c0 5.7 8.3 9.2 12.9 5.4 2.2-1.8 11.1-26.6 11.1-31 0-5.7-8.3-9.2-12.9-5.5zM107.1 25.7C104.9 27.6 96 52.4 96 56.8c0 5.7 8.3 9.2 12.9 5.4 2.2-1.8 11.1-26.6 11.1-31 0-5.7-8.3-9.2-12.9-5.5zM147.1 25.7c-2.2 1.9-11.1 26.7-11.1 31.1 0 5.7 8.3 9.2 12.9 5.4 2.2-1.8 11.1-26.6 11.1-31 0-5.7-8.3-9.2-12.9-5.5zM49.5 73.4c-3.7 1.6-7 5.2-8.4 8.9-.7 1.8-1.1 17-1.1 43.1 0 44.2.3 46.7 6.1 57.7 6.2 11.5 19.7 21.4 32.8 23.9 7 1.3 43.2 1.3 50.2 0 13.8-2.6 27.1-12.7 33.4-25.2 1.9-3.8 3.7-8.5 4.1-10.4l.6-3.4h14c17.4 0 20.8-.9 27.3-7.5 6.9-6.8 7.5-9.4 7.5-32.5s-.6-25.7-7.5-32.5C202 89 198.6 88 181.7 88h-13.5l-.6-3.5c-.8-4.3-5-9.4-9.3-11.1-4.7-2-104.3-2-108.8 0zm148 33.1c2.5 2.4 2.5 2.6 2.5 21.5s0 19.1-2.5 21.5c-2.3 2.4-2.9 2.5-16 2.5H168v-48h13.5c13.1 0 13.7.1 16 2.5zM50.5 218.5c-1.6 1.5-2.5 3.6-2.5 5.5s.9 4 2.5 5.5l2.4 2.5h102.2l2.4-2.5c1.6-1.5 2.5-3.6 2.5-5.5s-.9-4-2.5-5.5l-2.4-2.5H52.9l-2.4 2.5z"/></svg>