<svg version="1.0" xmlns="http://www.w3.org/2000/svg" width="341.333" height="341.333" viewBox="0 0 256 256"><path d="M67.7 2C64 4.9 64 9.7 67.6 13.1c6.9 6.3 6.5 14.3-1.1 20.5-12.5 10.2-12.6 30.5-.2 39.5 5.9 4.3 10.3 3.6 12.6-2 1-2.4 1-3.4-.3-6-.9-1.7-2.1-3.1-2.6-3.1-1.5 0-4-5.6-4-8.7.1-3.7 1.7-6.3 6.2-10.2 11.5-10 12.3-28.5 1.5-38.9-4.4-4.2-8.4-5-12-2.2zM104.9 1.9c-3.3 2.7-3.2 8.6.3 11.6s4.8 5.7 4.8 10c0 3-1 4.6-6.1 10.1-7.3 7.8-9.2 12-9.2 19.9-.1 7.5 2.8 13.9 8.4 18.9 4.6 4.3 8 4.6 11.4 1.1 3.5-3.4 3.2-6.8-1.2-11.6-3.2-3.5-3.8-4.9-3.8-8.6 0-4 .5-4.8 5.3-9.4 13.7-12.8 13.6-31.5 0-41.6-3.8-2.8-6.8-2.9-9.9-.4zM142.6 2.1c-3.7 2.9-3.6 7.6.3 11.3 6.9 6.6 6.4 13.8-1.4 20.2-9.3 7.5-12.1 20.1-6.9 31 2.8 5.9 9 11.4 12.8 11.4 3.1 0 6.3-2.5 7-5.5.7-2.6-1.7-8.5-3.4-8.5-1.5 0-4-5.6-4-8.7.1-3.7 1.7-6.3 6.2-10.2 11.9-10.3 12.2-29.1.7-39.5-4.5-4.1-7.5-4.5-11.3-1.5zM31.3 91.5c-2 .8-3.5 2.3-3.9 3.9-.3 1.4-.4 17.2-.2 35.3.4 30 .7 33.5 2.7 41.3 3.4 12.7 9.2 23.8 16.8 32l6.5 7h112.1l4.6-4.8c2.6-2.6 5.6-5.9 6.7-7.4 1.6-2.4 2.9-2.9 9.4-3.7 17.9-2.3 33.3-10 44.3-22.2 14.9-16.4 17.7-34.4 7.7-49.8-7.6-11.7-17.6-16.8-35.1-17.8l-10.9-.6v-4.3c0-3.1-.7-5.1-2.4-7.1l-2.4-2.8-76.4-.2c-63.8-.2-76.8 0-79.5 1.2zm184 31c7.5 3.1 13.6 12.2 13.7 20.3 0 8.7-8.6 21.4-19.4 28.6-5.4 3.6-21.1 9.5-22.2 8.3-.3-.3.4-4.8 1.6-9.9 1.8-7.4 2.4-13.2 2.8-29.1l.5-19.7h9.7c6.3 0 11 .5 13.3 1.5zM14.6 228.1c-7.3 5.7 1.4 23.6 13.1 26.8 2.5.7 30 1.1 82.3 1.1 76.9 0 78.6-.1 83-2.1 8.5-3.8 13.3-10.7 13.4-19.2.1-4-.3-5.2-2.3-6.8-2.2-1.8-5.2-1.9-94.6-1.9-91.8 0-92.2 0-94.9 2.1z"/></svg>