<?xml version="1.0" standalone="no"?>
<!DOCTYPE svg PUBLIC "-//W3C//DTD SVG 20010904//EN"
 "http://www.w3.org/TR/2001/REC-SVG-20010904/DTD/svg10.dtd">
<svg version="1.0" xmlns="http://www.w3.org/2000/svg"
 width="256.000000pt" height="256.000000pt" viewBox="0 0 256.000000 256.000000"
 preserveAspectRatio="xMidYMid meet">

<g transform="translate(0.000000,256.000000) scale(0.100000,-0.100000)"
fill="#000000" stroke="none">
<path d="M751 2303 c-22 -19 -111 -267 -111 -311 0 -57 83 -92 129 -54 22 18
111 266 111 310 0 57 -83 92 -129 55z"/>
<path d="M1071 2303 c-22 -19 -111 -267 -111 -311 0 -57 83 -92 129 -54 22 18
111 266 111 310 0 57 -83 92 -129 55z"/>
<path d="M1471 2303 c-22 -19 -111 -267 -111 -311 0 -57 83 -92 129 -54 22 18
111 266 111 310 0 57 -83 92 -129 55z"/>
<path d="M495 1826 c-37 -16 -70 -52 -84 -89 -7 -18 -11 -170 -11 -431 0 -442
3 -467 61 -577 62 -115 197 -214 328 -239 70 -13 432 -13 502 0 138 26 271
127 334 252 19 38 37 85 41 104 l6 34 140 0 c174 0 208 9 273 75 69 68 75 94
75 325 0 231 -6 257 -75 325 -65 65 -99 75 -268 75 l-135 0 -6 35 c-8 43 -50
94 -93 111 -47 20 -1043 20 -1088 0z m1480 -331 c25 -24 25 -26 25 -215 0
-189 0 -191 -25 -215 -23 -24 -29 -25 -160 -25 l-135 0 0 240 0 240 135 0
c131 0 137 -1 160 -25z"/>
<path d="M505 375 c-16 -15 -25 -36 -25 -55 0 -19 9 -40 25 -55 l24 -25 511 0
511 0 24 25 c16 15 25 36 25 55 0 19 -9 40 -25 55 l-24 25 -511 0 -511 0 -24
-25z"/>
</g>
</svg>
